<?xml version="1.0" standalone="no"?>
<!DOCTYPE svg PUBLIC "-//W3C//DTD SVG 20010904//EN"
 "http://www.w3.org/TR/2001/REC-SVG-20010904/DTD/svg10.dtd">
<svg version="1.0" xmlns="http://www.w3.org/2000/svg"
 width="500.000000pt" height="500.000000pt" viewBox="0 0 500.000000 500.000000"
 preserveAspectRatio="xMidYMid meet">
<metadata>
Created by potrace 1.11, written by Peter Selinger 2001-2013
</metadata>
<g transform="translate(0.000000,500.000000) scale(0.100000,-0.100000)"
fill="#000000" stroke="none">
<path d="M1397 3607 l-69 -70 219 -219 219 -219 74 71 74 70 -219 220 c-121
121 -222 219 -225 219 -3 -1 -36 -33 -73 -72z"/>
<path d="M4340 3452 c-171 -45 -292 -179 -320 -355 l-12 -73 -315 -85 c-173
-46 -318 -86 -323 -89 -5 -3 -1 -35 10 -70 10 -36 21 -77 24 -92 4 -16 12 -28
19 -28 6 0 152 38 322 85 309 84 310 84 325 63 143 -198 359 -259 568 -160
162 76 262 273 232 453 -31 186 -166 324 -349 359 -72 13 -104 12 -181 -8z"/>
<path d="M1825 1524 c-66 -119 -122 -220 -125 -224 -3 -5 -32 -2 -65 6 -200
47 -413 -14 -560 -160 -120 -120 -177 -258 -176 -431 0 -257 161 -475 413
-561 66 -23 85 -25 198 -22 97 3 139 9 184 26 230 84 381 286 394 524 6 115
-8 197 -48 285 -31 67 -106 172 -142 198 l-22 15 26 52 c15 29 71 132 126 228
l99 175 -56 30 c-31 17 -71 40 -88 53 -17 12 -33 22 -35 22 -1 -1 -57 -98
-123 -216z"/>
</g>
</svg>
